<svg width="225" height="300" viewBox="0 0 225 300" fill="none" xmlns="http://www.w3.org/2000/svg">
<g clip-path="url(#clip0_15_3)">
<path d="M51.5625 22.5C51.5625 16.2868 57.8585 11.25 65.625 11.25C73.3915 11.25 79.6875 16.2868 79.6875 22.5C79.6875 28.7132 73.3915 33.75 65.625 33.75C57.8585 33.75 51.5625 28.7132 51.5625 22.5Z" fill="white"/>
<path d="M51.5625 37.5C51.5625 31.2868 57.8585 26.25 65.625 26.25C73.3915 26.25 79.6875 31.2868 79.6875 37.5C79.6875 43.7132 73.3915 48.75 65.625 48.75C57.8585 48.75 51.5625 43.7132 51.5625 37.5Z" fill="white"/>
<path d="M51.5625 52.5C51.5625 46.2868 57.8585 41.25 65.625 41.25C73.3915 41.25 79.6875 46.2868 79.6875 52.5C79.6875 58.7132 73.3915 63.75 65.625 63.75C57.8585 63.75 51.5625 58.7132 51.5625 52.5Z" fill="white"/>
<path d="M51.5625 67.5C51.5625 61.2868 57.8585 56.25 65.625 56.25C73.3915 56.25 79.6875 61.2868 79.6875 67.5C79.6875 73.7132 73.3915 78.75 65.625 78.75C57.8585 78.75 51.5625 73.7132 51.5625 67.5Z" fill="white"/>
<path d="M51.5625 82.5C51.5625 76.2868 57.8585 71.25 65.625 71.25C73.3915 71.25 79.6875 76.2868 79.6875 82.5C79.6875 88.7132 73.3915 93.75 65.625 93.75C57.8585 93.75 51.5625 88.7132 51.5625 82.5Z" fill="white"/>
<path d="M51.5625 112.5C51.5625 106.287 57.8585 101.25 65.625 101.25C73.3915 101.25 79.6875 106.287 79.6875 112.5C79.6875 118.713 73.3915 123.75 65.625 123.75C57.8585 123.75 51.5625 118.713 51.5625 112.5Z" fill="white"/>
<path d="M51.5625 127.5C51.5625 121.287 57.8585 116.25 65.625 116.25C73.3915 116.25 79.6875 121.287 79.6875 127.5C79.6875 133.713 73.3915 138.75 65.625 138.75C57.8585 138.75 51.5625 133.713 51.5625 127.5Z" fill="white"/>
<path d="M51.5625 142.5C51.5625 136.287 57.8585 131.25 65.625 131.25C73.3915 131.25 79.6875 136.287 79.6875 142.5C79.6875 148.713 73.3915 153.75 65.625 153.75C57.8585 153.75 51.5625 148.713 51.5625 142.5Z" fill="white"/>
<path d="M51.5625 157.5C51.5625 151.287 57.8585 146.25 65.625 146.25C73.3915 146.25 79.6875 151.287 79.6875 157.5C79.6875 163.713 73.3915 168.75 65.625 168.75C57.8585 168.75 51.5625 163.713 51.5625 157.5Z" fill="white"/>
<path d="M51.5625 172.5C51.5625 166.287 57.8585 161.25 65.625 161.25C73.3915 161.25 79.6875 166.287 79.6875 172.5C79.6875 178.713 73.3915 183.75 65.625 183.75C57.8585 183.75 51.5625 178.713 51.5625 172.5Z" fill="white"/>
<path d="M51.5625 202.5C51.5625 196.287 57.8585 191.25 65.625 191.25C73.3915 191.25 79.6875 196.287 79.6875 202.5C79.6875 208.713 73.3915 213.75 65.625 213.75C57.8585 213.75 51.5625 208.713 51.5625 202.5Z" fill="white"/>
<path d="M51.5625 217.5C51.5625 211.287 57.8585 206.25 65.625 206.25C73.3915 206.25 79.6875 211.287 79.6875 217.5C79.6875 223.713 73.3915 228.75 65.625 228.75C57.8585 228.75 51.5625 223.713 51.5625 217.5Z" fill="white"/>
<path d="M51.5625 232.5C51.5625 226.287 57.8585 221.25 65.625 221.25C73.3915 221.25 79.6875 226.287 79.6875 232.5C79.6875 238.713 73.3915 243.75 65.625 243.75C57.8585 243.75 51.5625 238.713 51.5625 232.5Z" fill="white"/>
<path d="M51.5625 247.5C51.5625 241.287 57.8585 236.25 65.625 236.25C73.3915 236.25 79.6875 241.287 79.6875 247.5C79.6875 253.713 73.3915 258.75 65.625 258.75C57.8585 258.75 51.5625 253.713 51.5625 247.5Z" fill="white"/>
<path d="M70.3125 22.5C70.3125 16.2868 76.6085 11.25 84.375 11.25C92.1415 11.25 98.4375 16.2868 98.4375 22.5C98.4375 28.7132 92.1415 33.75 84.375 33.75C76.6085 33.75 70.3125 28.7132 70.3125 22.5Z" fill="white"/>
<path d="M70.3125 37.5C70.3125 31.2868 76.6085 26.25 84.375 26.25C92.1415 26.25 98.4375 31.2868 98.4375 37.5C98.4375 43.7132 92.1415 48.75 84.375 48.75C76.6085 48.75 70.3125 43.7132 70.3125 37.5Z" fill="white"/>
<path d="M70.3125 52.5C70.3125 46.2868 76.6085 41.25 84.375 41.25C92.1415 41.25 98.4375 46.2868 98.4375 52.5C98.4375 58.7132 92.1415 63.75 84.375 63.75C76.6085 63.75 70.3125 58.7132 70.3125 52.5Z" fill="white"/>
<path d="M70.3125 82.5C70.3125 76.2868 76.6085 71.25 84.375 71.25C92.1415 71.25 98.4375 76.2868 98.4375 82.5C98.4375 88.7132 92.1415 93.75 84.375 93.75C76.6085 93.75 70.3125 88.7132 70.3125 82.5Z" fill="white"/>
<path d="M70.3125 97.5C70.3125 91.2868 76.6085 86.25 84.375 86.25C92.1415 86.25 98.4375 91.2868 98.4375 97.5C98.4375 103.713 92.1415 108.75 84.375 108.75C76.6085 108.75 70.3125 103.713 70.3125 97.5Z" fill="white"/>
<path d="M70.3125 112.5C70.3125 106.287 76.6085 101.25 84.375 101.25C92.1415 101.25 98.4375 106.287 98.4375 112.5C98.4375 118.713 92.1415 123.75 84.375 123.75C76.6085 123.75 70.3125 118.713 70.3125 112.5Z" fill="white"/>
<path d="M70.3125 127.5C70.3125 121.287 76.6085 116.25 84.375 116.25C92.1415 116.25 98.4375 121.287 98.4375 127.5C98.4375 133.713 92.1415 138.75 84.375 138.75C76.6085 138.75 70.3125 133.713 70.3125 127.5Z" fill="white"/>
<path d="M70.3125 142.5C70.3125 136.287 76.6085 131.25 84.375 131.25C92.1415 131.25 98.4375 136.287 98.4375 142.5C98.4375 148.713 92.1415 153.75 84.375 153.75C76.6085 153.75 70.3125 148.713 70.3125 142.5Z" fill="white"/>
<path d="M70.3125 157.5C70.3125 151.287 76.6085 146.25 84.375 146.25C92.1415 146.25 98.4375 151.287 98.4375 157.5C98.4375 163.713 92.1415 168.75 84.375 168.75C76.6085 168.75 70.3125 163.713 70.3125 157.5Z" fill="white"/>
<path d="M70.3125 172.5C70.3125 166.287 76.6085 161.25 84.375 161.25C92.1415 161.25 98.4375 166.287 98.4375 172.5C98.4375 178.713 92.1415 183.75 84.375 183.75C76.6085 183.75 70.3125 178.713 70.3125 172.5Z" fill="white"/>
<path d="M70.3125 187.5C70.3125 181.287 76.6085 176.25 84.375 176.25C92.1415 176.25 98.4375 181.287 98.4375 187.5C98.4375 193.713 92.1415 198.75 84.375 198.75C76.6085 198.75 70.3125 193.713 70.3125 187.5Z" fill="white"/>
<path d="M70.3125 202.5C70.3125 196.287 76.6085 191.25 84.375 191.25C92.1415 191.25 98.4375 196.287 98.4375 202.5C98.4375 208.713 92.1415 213.75 84.375 213.75C76.6085 213.75 70.3125 208.713 70.3125 202.5Z" fill="white"/>
<path d="M70.3125 217.5C70.3125 211.287 76.6085 206.25 84.375 206.25C92.1415 206.25 98.4375 211.287 98.4375 217.5C98.4375 223.713 92.1415 228.75 84.375 228.75C76.6085 228.75 70.3125 223.713 70.3125 217.5Z" fill="white"/>
<path d="M70.3125 232.5C70.3125 226.287 76.6085 221.25 84.375 221.25C92.1415 221.25 98.4375 226.287 98.4375 232.5C98.4375 238.713 92.1415 243.75 84.375 243.75C76.6085 243.75 70.3125 238.713 70.3125 232.5Z" fill="white"/>
<path d="M70.3125 247.5C70.3125 241.287 76.6085 236.25 84.375 236.25C92.1415 236.25 98.4375 241.287 98.4375 247.5C98.4375 253.713 92.1415 258.75 84.375 258.75C76.6085 258.75 70.3125 253.713 70.3125 247.5Z" fill="white"/>
<path d="M70.3125 262.5C70.3125 256.287 76.6085 251.25 84.375 251.25C92.1415 251.25 98.4375 256.287 98.4375 262.5C98.4375 268.713 92.1415 273.75 84.375 273.75C76.6085 273.75 70.3125 268.713 70.3125 262.5Z" fill="white"/>
<path d="M89.0625 37.5C89.0625 31.2868 95.3585 26.25 103.125 26.25C110.892 26.25 117.188 31.2868 117.188 37.5C117.188 43.7132 110.892 48.75 103.125 48.75C95.3585 48.75 89.0625 43.7132 89.0625 37.5Z" fill="white"/>
<path d="M89.0625 142.5C89.0625 136.287 95.3585 131.25 103.125 131.25C110.892 131.25 117.188 136.287 117.188 142.5C117.188 148.713 110.892 153.75 103.125 153.75C95.3585 153.75 89.0625 148.713 89.0625 142.5Z" fill="white"/>
<path d="M89.0625 157.5C89.0625 151.287 95.3585 146.25 103.125 146.25C110.892 146.25 117.188 151.287 117.188 157.5C117.188 163.713 110.892 168.75 103.125 168.75C95.3585 168.75 89.0625 163.713 89.0625 157.5Z" fill="white"/>
<path d="M89.0625 202.5C89.0625 196.287 95.3585 191.25 103.125 191.25C110.892 191.25 117.188 196.287 117.188 202.5C117.188 208.713 110.892 213.75 103.125 213.75C95.3585 213.75 89.0625 208.713 89.0625 202.5Z" fill="white"/>
<path d="M89.0625 262.5C89.0625 256.287 95.3585 251.25 103.125 251.25C110.892 251.25 117.188 256.287 117.188 262.5C117.188 268.713 110.892 273.75 103.125 273.75C95.3585 273.75 89.0625 268.713 89.0625 262.5Z" fill="white"/>
<path d="M107.812 22.5C107.812 16.2868 114.108 11.25 121.875 11.25C129.642 11.25 135.938 16.2868 135.938 22.5C135.938 28.7132 129.642 33.75 121.875 33.75C114.108 33.75 107.812 28.7132 107.812 22.5Z" fill="white"/>
<path d="M107.812 37.5C107.812 31.2868 114.108 26.25 121.875 26.25C129.642 26.25 135.938 31.2868 135.938 37.5C135.938 43.7132 129.642 48.75 121.875 48.75C114.108 48.75 107.812 43.7132 107.812 37.5Z" fill="white"/>
<path d="M107.812 142.5C107.812 136.287 114.108 131.25 121.875 131.25C129.642 131.25 135.938 136.287 135.938 142.5C135.938 148.713 129.642 153.75 121.875 153.75C114.108 153.75 107.812 148.713 107.812 142.5Z" fill="white"/>
<path d="M107.812 157.5C107.812 151.287 114.108 146.25 121.875 146.25C129.642 146.25 135.938 151.287 135.938 157.5C135.938 163.713 129.642 168.75 121.875 168.75C114.108 168.75 107.812 163.713 107.812 157.5Z" fill="white"/>
<path d="M107.812 247.5C107.812 241.287 114.108 236.25 121.875 236.25C129.642 236.25 135.938 241.287 135.938 247.5C135.938 253.713 129.642 258.75 121.875 258.75C114.108 258.75 107.812 253.713 107.812 247.5Z" fill="white"/>
<path d="M107.812 262.5C107.812 256.287 114.108 251.25 121.875 251.25C129.642 251.25 135.938 256.287 135.938 262.5C135.938 268.713 129.642 273.75 121.875 273.75C114.108 273.75 107.812 268.713 107.812 262.5Z" fill="white"/>
<path d="M126.562 22.5C126.562 16.2868 132.858 11.25 140.625 11.25C148.392 11.25 154.688 16.2868 154.688 22.5C154.688 28.7132 148.392 33.75 140.625 33.75C132.858 33.75 126.562 28.7132 126.562 22.5Z" fill="white"/>
<path d="M126.562 37.5C126.562 31.2868 132.858 26.25 140.625 26.25C148.392 26.25 154.688 31.2868 154.688 37.5C154.688 43.7132 148.392 48.75 140.625 48.75C132.858 48.75 126.562 43.7132 126.562 37.5Z" fill="white"/>
<path d="M126.562 127.5C126.562 121.287 132.858 116.25 140.625 116.25C148.392 116.25 154.688 121.287 154.688 127.5C154.688 133.713 148.392 138.75 140.625 138.75C132.858 138.75 126.562 133.713 126.562 127.5Z" fill="white"/>
<path d="M126.562 142.5C126.562 136.287 132.858 131.25 140.625 131.25C148.392 131.25 154.688 136.287 154.688 142.5C154.688 148.713 148.392 153.75 140.625 153.75C132.858 153.75 126.562 148.713 126.562 142.5Z" fill="white"/>
<path d="M126.562 247.5C126.562 241.287 132.858 236.25 140.625 236.25C148.392 236.25 154.688 241.287 154.688 247.5C154.688 253.713 148.392 258.75 140.625 258.75C132.858 258.75 126.562 253.713 126.562 247.5Z" fill="white"/>
<path d="M126.562 262.5C126.562 256.287 132.858 251.25 140.625 251.25C148.392 251.25 154.688 256.287 154.688 262.5C154.688 268.713 148.392 273.75 140.625 273.75C132.858 273.75 126.562 268.713 126.562 262.5Z" fill="white"/>
<path d="M145.312 22.5C145.312 16.2868 151.608 11.25 159.375 11.25C167.142 11.25 173.438 16.2868 173.438 22.5C173.438 28.7132 167.142 33.75 159.375 33.75C151.608 33.75 145.312 28.7132 145.312 22.5Z" fill="white"/>
<path d="M145.312 37.5C145.312 31.2868 151.608 26.25 159.375 26.25C167.142 26.25 173.438 31.2868 173.438 37.5C173.438 43.7132 167.142 48.75 159.375 48.75C151.608 48.75 145.312 43.7132 145.312 37.5Z" fill="white"/>
<path d="M145.312 142.5C145.312 136.287 151.608 131.25 159.375 131.25C167.142 131.25 173.438 136.287 173.438 142.5C173.438 148.713 167.142 153.75 159.375 153.75C151.608 153.75 145.312 148.713 145.312 142.5Z" fill="white"/>
<path d="M145.312 157.5C145.312 151.287 151.608 146.25 159.375 146.25C167.142 146.25 173.438 151.287 173.438 157.5C173.438 163.713 167.142 168.75 159.375 168.75C151.608 168.75 145.312 163.713 145.312 157.5Z" fill="white"/>
<path d="M145.312 247.5C145.312 241.287 151.608 236.25 159.375 236.25C167.142 236.25 173.438 241.287 173.438 247.5C173.438 253.713 167.142 258.75 159.375 258.75C151.608 258.75 145.312 253.713 145.312 247.5Z" fill="white"/>
<path d="M145.312 262.5C145.312 256.287 151.608 251.25 159.375 251.25C167.142 251.25 173.438 256.287 173.438 262.5C173.438 268.713 167.142 273.75 159.375 273.75C151.608 273.75 145.312 268.713 145.312 262.5Z" fill="white"/>
<path d="M164.062 22.5C164.062 16.2868 170.358 11.25 178.125 11.25C185.892 11.25 192.188 16.2868 192.188 22.5C192.188 28.7132 185.892 33.75 178.125 33.75C170.358 33.75 164.062 28.7132 164.062 22.5Z" fill="white"/>
<path d="M164.062 37.5C164.062 31.2868 170.358 26.25 178.125 26.25C185.892 26.25 192.188 31.2868 192.188 37.5C192.188 43.7132 185.892 48.75 178.125 48.75C170.358 48.75 164.062 43.7132 164.062 37.5Z" fill="white"/>
<path d="M164.062 142.5C164.062 136.287 170.358 131.25 178.125 131.25C185.892 131.25 192.188 136.287 192.188 142.5C192.188 148.713 185.892 153.75 178.125 153.75C170.358 153.75 164.062 148.713 164.062 142.5Z" fill="white"/>
<path d="M164.062 157.5C164.062 151.287 170.358 146.25 178.125 146.25C185.892 146.25 192.188 151.287 192.188 157.5C192.188 163.713 185.892 168.75 178.125 168.75C170.358 168.75 164.062 163.713 164.062 157.5Z" fill="white"/>
<path d="M164.062 247.5C164.062 241.287 170.358 236.25 178.125 236.25C185.892 236.25 192.188 241.287 192.188 247.5C192.188 253.713 185.892 258.75 178.125 258.75C170.358 258.75 164.062 253.713 164.062 247.5Z" fill="white"/>
<path d="M164.062 262.5C164.062 256.287 170.358 251.25 178.125 251.25C185.892 251.25 192.188 256.287 192.188 262.5C192.188 268.713 185.892 273.75 178.125 273.75C170.358 273.75 164.062 268.713 164.062 262.5Z" fill="white"/>
<path d="M182.812 37.5C182.812 31.2868 189.108 26.25 196.875 26.25C204.642 26.25 210.938 31.2868 210.938 37.5C210.938 43.7132 204.642 48.75 196.875 48.75C189.108 48.75 182.812 43.7132 182.812 37.5Z" fill="white"/>
<path d="M182.812 142.5C182.812 136.287 189.108 131.25 196.875 131.25C204.642 131.25 210.938 136.287 210.938 142.5C210.938 148.713 204.642 153.75 196.875 153.75C189.108 153.75 182.812 148.713 182.812 142.5Z" fill="white"/>
<path d="M182.812 157.5C182.812 151.287 189.108 146.25 196.875 146.25C204.642 146.25 210.938 151.287 210.938 157.5C210.938 163.713 204.642 168.75 196.875 168.75C189.108 168.75 182.812 163.713 182.812 157.5Z" fill="white"/>
<path d="M182.812 247.5C182.812 241.287 189.108 236.25 196.875 236.25C204.642 236.25 210.938 241.287 210.938 247.5C210.938 253.713 204.642 258.75 196.875 258.75C189.108 258.75 182.812 253.713 182.812 247.5Z" fill="white"/>
<path d="M182.812 262.5C182.812 256.287 189.108 251.25 196.875 251.25C204.642 251.25 210.938 256.287 210.938 262.5C210.938 268.713 204.642 273.75 196.875 273.75C189.108 273.75 182.812 268.713 182.812 262.5Z" fill="white"/>
</g>
<defs>
<clipPath id="clip0_15_3">
<rect width="225" height="300" fill="white"/>
</clipPath>
</defs>
</svg>
