<svg width="225" height="300" viewBox="0 0 225 300" fill="none" xmlns="http://www.w3.org/2000/svg">
<g clip-path="url(#clip0_15_1008)">
<path d="M89.0625 52.5C89.0625 46.2868 95.3585 41.25 103.125 41.25C110.892 41.25 117.188 46.2868 117.188 52.5C117.188 58.7132 110.892 63.75 103.125 63.75C95.3585 63.75 89.0625 58.7132 89.0625 52.5Z" fill="white"/>
<path d="M89.0625 67.5C89.0625 61.2868 95.3585 56.25 103.125 56.25C110.892 56.25 117.188 61.2868 117.188 67.5C117.188 73.7132 110.892 78.75 103.125 78.75C95.3585 78.75 89.0625 73.7132 89.0625 67.5Z" fill="white"/>
<path d="M89.0625 127.5C89.0625 121.287 95.3585 116.25 103.125 116.25C110.892 116.25 117.188 121.287 117.188 127.5C117.188 133.713 110.892 138.75 103.125 138.75C95.3585 138.75 89.0625 133.713 89.0625 127.5Z" fill="white"/>
<path d="M89.0625 142.5C89.0625 136.287 95.3585 131.25 103.125 131.25C110.892 131.25 117.188 136.287 117.188 142.5C117.188 148.713 110.892 153.75 103.125 153.75C95.3585 153.75 89.0625 148.713 89.0625 142.5Z" fill="white"/>
<path d="M89.0625 157.5C89.0625 151.287 95.3585 146.25 103.125 146.25C110.892 146.25 117.188 151.287 117.188 157.5C117.188 163.713 110.892 168.75 103.125 168.75C95.3585 168.75 89.0625 163.713 89.0625 157.5Z" fill="white"/>
<path d="M89.0625 172.5C89.0625 166.287 95.3585 161.25 103.125 161.25C110.892 161.25 117.188 166.287 117.188 172.5C117.188 178.713 110.892 183.75 103.125 183.75C95.3585 183.75 89.0625 178.713 89.0625 172.5Z" fill="white"/>
<path d="M89.0625 202.5C89.0625 196.287 95.3585 191.25 103.125 191.25C110.892 191.25 117.188 196.287 117.188 202.5C117.188 208.713 110.892 213.75 103.125 213.75C95.3585 213.75 89.0625 208.713 89.0625 202.5Z" fill="white"/>
<path d="M89.0625 217.5C89.0625 211.287 95.3585 206.25 103.125 206.25C110.892 206.25 117.188 211.287 117.188 217.5C117.188 223.713 110.892 228.75 103.125 228.75C95.3585 228.75 89.0625 223.713 89.0625 217.5Z" fill="white"/>
<path d="M89.0625 232.5C89.0625 226.287 95.3585 221.25 103.125 221.25C110.892 221.25 117.188 226.287 117.188 232.5C117.188 238.713 110.892 243.75 103.125 243.75C95.3585 243.75 89.0625 238.713 89.0625 232.5Z" fill="white"/>
<path d="M89.0625 247.5C89.0625 241.287 95.3585 236.25 103.125 236.25C110.892 236.25 117.188 241.287 117.188 247.5C117.188 253.713 110.892 258.75 103.125 258.75C95.3585 258.75 89.0625 253.713 89.0625 247.5Z" fill="white"/>
<path d="M89.0625 262.5C89.0625 256.287 95.3585 251.25 103.125 251.25C110.892 251.25 117.188 256.287 117.188 262.5C117.188 268.713 110.892 273.75 103.125 273.75C95.3585 273.75 89.0625 268.713 89.0625 262.5Z" fill="white"/>
<path d="M89.0625 277.5C89.0625 271.287 95.3585 266.25 103.125 266.25C110.892 266.25 117.188 271.287 117.188 277.5C117.188 283.713 110.892 288.75 103.125 288.75C95.3585 288.75 89.0625 283.713 89.0625 277.5Z" fill="white"/>
<path d="M89.0625 292.5C89.0625 286.287 95.3585 281.25 103.125 281.25C110.892 281.25 117.188 286.287 117.188 292.5C117.188 298.713 110.892 303.75 103.125 303.75C95.3585 303.75 89.0625 298.713 89.0625 292.5Z" fill="white"/>
<path d="M107.812 67.5C107.812 61.2868 114.108 56.25 121.875 56.25C129.642 56.25 135.938 61.2868 135.938 67.5C135.938 73.7132 129.642 78.75 121.875 78.75C114.108 78.75 107.812 73.7132 107.812 67.5Z" fill="white"/>
<path d="M107.812 127.5C107.812 121.287 114.108 116.25 121.875 116.25C129.642 116.25 135.938 121.287 135.938 127.5C135.938 133.713 129.642 138.75 121.875 138.75C114.108 138.75 107.812 133.713 107.812 127.5Z" fill="white"/>
<path d="M107.812 142.5C107.812 136.287 114.108 131.25 121.875 131.25C129.642 131.25 135.938 136.287 135.938 142.5C135.938 148.713 129.642 153.75 121.875 153.75C114.108 153.75 107.812 148.713 107.812 142.5Z" fill="white"/>
<path d="M107.812 157.5C107.812 151.287 114.108 146.25 121.875 146.25C129.642 146.25 135.938 151.287 135.938 157.5C135.938 163.713 129.642 168.75 121.875 168.75C114.108 168.75 107.812 163.713 107.812 157.5Z" fill="white"/>
<path d="M107.812 172.5C107.812 166.287 114.108 161.25 121.875 161.25C129.642 161.25 135.938 166.287 135.938 172.5C135.938 178.713 129.642 183.75 121.875 183.75C114.108 183.75 107.812 178.713 107.812 172.5Z" fill="white"/>
<path d="M107.812 187.5C107.812 181.287 114.108 176.25 121.875 176.25C129.642 176.25 135.938 181.287 135.938 187.5C135.938 193.713 129.642 198.75 121.875 198.75C114.108 198.75 107.812 193.713 107.812 187.5Z" fill="white"/>
<path d="M107.812 202.5C107.812 196.287 114.108 191.25 121.875 191.25C129.642 191.25 135.938 196.287 135.938 202.5C135.938 208.713 129.642 213.75 121.875 213.75C114.108 213.75 107.812 208.713 107.812 202.5Z" fill="white"/>
<path d="M107.812 217.5C107.812 211.287 114.108 206.25 121.875 206.25C129.642 206.25 135.938 211.287 135.938 217.5C135.938 223.713 129.642 228.75 121.875 228.75C114.108 228.75 107.812 223.713 107.812 217.5Z" fill="white"/>
<path d="M107.812 232.5C107.812 226.287 114.108 221.25 121.875 221.25C129.642 221.25 135.938 226.287 135.938 232.5C135.938 238.713 129.642 243.75 121.875 243.75C114.108 243.75 107.812 238.713 107.812 232.5Z" fill="white"/>
<path d="M107.812 262.5C107.812 256.287 114.108 251.25 121.875 251.25C129.642 251.25 135.938 256.287 135.938 262.5C135.938 268.713 129.642 273.75 121.875 273.75C114.108 273.75 107.812 268.713 107.812 262.5Z" fill="white"/>
<path d="M107.812 277.5C107.812 271.287 114.108 266.25 121.875 266.25C129.642 266.25 135.938 271.287 135.938 277.5C135.938 283.713 129.642 288.75 121.875 288.75C114.108 288.75 107.812 283.713 107.812 277.5Z" fill="white"/>
</g>
<defs>
<clipPath id="clip0_15_1008">
<rect width="225" height="300" fill="white"/>
</clipPath>
</defs>
</svg>
