<svg width="225" height="300" viewBox="0 0 225 300" fill="none" xmlns="http://www.w3.org/2000/svg">
<g clip-path="url(#clip0_15_204)">
<path d="M14.0625 157.5C14.0625 151.287 20.3585 146.25 28.125 146.25C35.8915 146.25 42.1875 151.287 42.1875 157.5C42.1875 163.713 35.8915 168.75 28.125 168.75C20.3585 168.75 14.0625 163.713 14.0625 157.5Z" fill="white"/>
<path d="M14.0625 172.5C14.0625 166.287 20.3585 161.25 28.125 161.25C35.8915 161.25 42.1875 166.287 42.1875 172.5C42.1875 178.713 35.8915 183.75 28.125 183.75C20.3585 183.75 14.0625 178.713 14.0625 172.5Z" fill="white"/>
<path d="M14.0625 187.5C14.0625 181.287 20.3585 176.25 28.125 176.25C35.8915 176.25 42.1875 181.287 42.1875 187.5C42.1875 193.713 35.8915 198.75 28.125 198.75C20.3585 198.75 14.0625 193.713 14.0625 187.5Z" fill="white"/>
<path d="M14.0625 202.5C14.0625 196.287 20.3585 191.25 28.125 191.25C35.8915 191.25 42.1875 196.287 42.1875 202.5C42.1875 208.713 35.8915 213.75 28.125 213.75C20.3585 213.75 14.0625 208.713 14.0625 202.5Z" fill="white"/>
<path d="M14.0625 217.5C14.0625 211.287 20.3585 206.25 28.125 206.25C35.8915 206.25 42.1875 211.287 42.1875 217.5C42.1875 223.713 35.8915 228.75 28.125 228.75C20.3585 228.75 14.0625 223.713 14.0625 217.5Z" fill="white"/>
<path d="M14.0625 232.5C14.0625 226.287 20.3585 221.25 28.125 221.25C35.8915 221.25 42.1875 226.287 42.1875 232.5C42.1875 238.713 35.8915 243.75 28.125 243.75C20.3585 243.75 14.0625 238.713 14.0625 232.5Z" fill="white"/>
<path d="M32.8125 97.5C32.8125 91.2868 39.1085 86.25 46.875 86.25C54.6415 86.25 60.9375 91.2868 60.9375 97.5C60.9375 103.713 54.6415 108.75 46.875 108.75C39.1085 108.75 32.8125 103.713 32.8125 97.5Z" fill="white"/>
<path d="M32.8125 112.5C32.8125 106.287 39.1085 101.25 46.875 101.25C54.6415 101.25 60.9375 106.287 60.9375 112.5C60.9375 118.713 54.6415 123.75 46.875 123.75C39.1085 123.75 32.8125 118.713 32.8125 112.5Z" fill="white"/>
<path d="M32.8125 127.5C32.8125 121.287 39.1085 116.25 46.875 116.25C54.6415 116.25 60.9375 121.287 60.9375 127.5C60.9375 133.713 54.6415 138.75 46.875 138.75C39.1085 138.75 32.8125 133.713 32.8125 127.5Z" fill="white"/>
<path d="M32.8125 142.5C32.8125 136.287 39.1085 131.25 46.875 131.25C54.6415 131.25 60.9375 136.287 60.9375 142.5C60.9375 148.713 54.6415 153.75 46.875 153.75C39.1085 153.75 32.8125 148.713 32.8125 142.5Z" fill="white"/>
<path d="M32.8125 157.5C32.8125 151.287 39.1085 146.25 46.875 146.25C54.6415 146.25 60.9375 151.287 60.9375 157.5C60.9375 163.713 54.6415 168.75 46.875 168.75C39.1085 168.75 32.8125 163.713 32.8125 157.5Z" fill="white"/>
<path d="M51.5625 82.5C51.5625 76.2868 57.8585 71.25 65.625 71.25C73.3915 71.25 79.6875 76.2868 79.6875 82.5C79.6875 88.7132 73.3915 93.75 65.625 93.75C57.8585 93.75 51.5625 88.7132 51.5625 82.5Z" fill="white"/>
<path d="M51.5625 97.5C51.5625 91.2868 57.8585 86.25 65.625 86.25C73.3915 86.25 79.6875 91.2868 79.6875 97.5C79.6875 103.713 73.3915 108.75 65.625 108.75C57.8585 108.75 51.5625 103.713 51.5625 97.5Z" fill="white"/>
<path d="M70.3125 52.5C70.3125 46.2868 76.6085 41.25 84.375 41.25C92.1415 41.25 98.4375 46.2868 98.4375 52.5C98.4375 58.7132 92.1415 63.75 84.375 63.75C76.6085 63.75 70.3125 58.7132 70.3125 52.5Z" fill="white"/>
<path d="M70.3125 67.5C70.3125 61.2868 76.6085 56.25 84.375 56.25C92.1415 56.25 98.4375 61.2868 98.4375 67.5C98.4375 73.7132 92.1415 78.75 84.375 78.75C76.6085 78.75 70.3125 73.7132 70.3125 67.5Z" fill="white"/>
<path d="M70.3125 82.5C70.3125 76.2868 76.6085 71.25 84.375 71.25C92.1415 71.25 98.4375 76.2868 98.4375 82.5C98.4375 88.7132 92.1415 93.75 84.375 93.75C76.6085 93.75 70.3125 88.7132 70.3125 82.5Z" fill="white"/>
<path d="M70.3125 97.5C70.3125 91.2868 76.6085 86.25 84.375 86.25C92.1415 86.25 98.4375 91.2868 98.4375 97.5C98.4375 103.713 92.1415 108.75 84.375 108.75C76.6085 108.75 70.3125 103.713 70.3125 97.5Z" fill="white"/>
<path d="M89.0625 67.5C89.0625 61.2868 95.3585 56.25 103.125 56.25C110.892 56.25 117.188 61.2868 117.188 67.5C117.188 73.7132 110.892 78.75 103.125 78.75C95.3585 78.75 89.0625 73.7132 89.0625 67.5Z" fill="white"/>
<path d="M89.0625 82.5C89.0625 76.2868 95.3585 71.25 103.125 71.25C110.892 71.25 117.188 76.2868 117.188 82.5C117.188 88.7132 110.892 93.75 103.125 93.75C95.3585 93.75 89.0625 88.7132 89.0625 82.5Z" fill="white"/>
<path d="M89.0625 97.5C89.0625 91.2868 95.3585 86.25 103.125 86.25C110.892 86.25 117.188 91.2868 117.188 97.5C117.188 103.713 110.892 108.75 103.125 108.75C95.3585 108.75 89.0625 103.713 89.0625 97.5Z" fill="white"/>
<path d="M107.812 97.5C107.812 91.2868 114.108 86.25 121.875 86.25C129.642 86.25 135.938 91.2868 135.938 97.5C135.938 103.713 129.642 108.75 121.875 108.75C114.108 108.75 107.812 103.713 107.812 97.5Z" fill="white"/>
<path d="M107.812 112.5C107.812 106.287 114.108 101.25 121.875 101.25C129.642 101.25 135.938 106.287 135.938 112.5C135.938 118.713 129.642 123.75 121.875 123.75C114.108 123.75 107.812 118.713 107.812 112.5Z" fill="white"/>
<path d="M107.812 127.5C107.812 121.287 114.108 116.25 121.875 116.25C129.642 116.25 135.938 121.287 135.938 127.5C135.938 133.713 129.642 138.75 121.875 138.75C114.108 138.75 107.812 133.713 107.812 127.5Z" fill="white"/>
<path d="M107.812 142.5C107.812 136.287 114.108 131.25 121.875 131.25C129.642 131.25 135.938 136.287 135.938 142.5C135.938 148.713 129.642 153.75 121.875 153.75C114.108 153.75 107.812 148.713 107.812 142.5Z" fill="white"/>
<path d="M126.562 52.5C126.562 46.2868 132.858 41.25 140.625 41.25C148.392 41.25 154.688 46.2868 154.688 52.5C154.688 58.7132 148.392 63.75 140.625 63.75C132.858 63.75 126.562 58.7132 126.562 52.5Z" fill="white"/>
<path d="M126.562 67.5C126.562 61.2868 132.858 56.25 140.625 56.25C148.392 56.25 154.688 61.2868 154.688 67.5C154.688 73.7132 148.392 78.75 140.625 78.75C132.858 78.75 126.562 73.7132 126.562 67.5Z" fill="white"/>
<path d="M126.562 82.5C126.562 76.2868 132.858 71.25 140.625 71.25C148.392 71.25 154.688 76.2868 154.688 82.5C154.688 88.7132 148.392 93.75 140.625 93.75C132.858 93.75 126.562 88.7132 126.562 82.5Z" fill="white"/>
<path d="M126.562 97.5C126.562 91.2868 132.858 86.25 140.625 86.25C148.392 86.25 154.688 91.2868 154.688 97.5C154.688 103.713 148.392 108.75 140.625 108.75C132.858 108.75 126.562 103.713 126.562 97.5Z" fill="white"/>
<path d="M126.562 112.5C126.562 106.287 132.858 101.25 140.625 101.25C148.392 101.25 154.688 106.287 154.688 112.5C154.688 118.713 148.392 123.75 140.625 123.75C132.858 123.75 126.562 118.713 126.562 112.5Z" fill="white"/>
<path d="M126.562 142.5C126.562 136.287 132.858 131.25 140.625 131.25C148.392 131.25 154.688 136.287 154.688 142.5C154.688 148.713 148.392 153.75 140.625 153.75C132.858 153.75 126.562 148.713 126.562 142.5Z" fill="white"/>
<path d="M145.312 37.5C145.312 31.2868 151.608 26.25 159.375 26.25C167.142 26.25 173.438 31.2868 173.438 37.5C173.438 43.7132 167.142 48.75 159.375 48.75C151.608 48.75 145.312 43.7132 145.312 37.5Z" fill="white"/>
<path d="M145.312 52.5C145.312 46.2868 151.608 41.25 159.375 41.25C167.142 41.25 173.438 46.2868 173.438 52.5C173.438 58.7132 167.142 63.75 159.375 63.75C151.608 63.75 145.312 58.7132 145.312 52.5Z" fill="white"/>
<path d="M145.312 67.5C145.312 61.2868 151.608 56.25 159.375 56.25C167.142 56.25 173.438 61.2868 173.438 67.5C173.438 73.7132 167.142 78.75 159.375 78.75C151.608 78.75 145.312 73.7132 145.312 67.5Z" fill="white"/>
<path d="M164.062 67.5C164.062 61.2868 170.358 56.25 178.125 56.25C185.892 56.25 192.188 61.2868 192.188 67.5C192.188 73.7132 185.892 78.75 178.125 78.75C170.358 78.75 164.062 73.7132 164.062 67.5Z" fill="white"/>
<path d="M164.062 82.5C164.062 76.2868 170.358 71.25 178.125 71.25C185.892 71.25 192.188 76.2868 192.188 82.5C192.188 88.7132 185.892 93.75 178.125 93.75C170.358 93.75 164.062 88.7132 164.062 82.5Z" fill="white"/>
<path d="M164.062 97.5C164.062 91.2868 170.358 86.25 178.125 86.25C185.892 86.25 192.188 91.2868 192.188 97.5C192.188 103.713 185.892 108.75 178.125 108.75C170.358 108.75 164.062 103.713 164.062 97.5Z" fill="white"/>
<path d="M182.812 97.5C182.812 91.2868 189.108 86.25 196.875 86.25C204.642 86.25 210.938 91.2868 210.938 97.5C210.938 103.713 204.642 108.75 196.875 108.75C189.108 108.75 182.812 103.713 182.812 97.5Z" fill="white"/>
<path d="M182.812 112.5C182.812 106.287 189.108 101.25 196.875 101.25C204.642 101.25 210.938 106.287 210.938 112.5C210.938 118.713 204.642 123.75 196.875 123.75C189.108 123.75 182.812 118.713 182.812 112.5Z" fill="white"/>
<path d="M182.812 127.5C182.812 121.287 189.108 116.25 196.875 116.25C204.642 116.25 210.938 121.287 210.938 127.5C210.938 133.713 204.642 138.75 196.875 138.75C189.108 138.75 182.812 133.713 182.812 127.5Z" fill="white"/>
<path d="M182.812 142.5C182.812 136.287 189.108 131.25 196.875 131.25C204.642 131.25 210.938 136.287 210.938 142.5C210.938 148.713 204.642 153.75 196.875 153.75C189.108 153.75 182.812 148.713 182.812 142.5Z" fill="white"/>
<path d="M182.812 157.5C182.812 151.287 189.108 146.25 196.875 146.25C204.642 146.25 210.938 151.287 210.938 157.5C210.938 163.713 204.642 168.75 196.875 168.75C189.108 168.75 182.812 163.713 182.812 157.5Z" fill="white"/>
<path d="M182.812 172.5C182.812 166.287 189.108 161.25 196.875 161.25C204.642 161.25 210.938 166.287 210.938 172.5C210.938 178.713 204.642 183.75 196.875 183.75C189.108 183.75 182.812 178.713 182.812 172.5Z" fill="white"/>
<path d="M182.812 187.5C182.812 181.287 189.108 176.25 196.875 176.25C204.642 176.25 210.938 181.287 210.938 187.5C210.938 193.713 204.642 198.75 196.875 198.75C189.108 198.75 182.812 193.713 182.812 187.5Z" fill="white"/>
<path d="M182.812 202.5C182.812 196.287 189.108 191.25 196.875 191.25C204.642 191.25 210.938 196.287 210.938 202.5C210.938 208.713 204.642 213.75 196.875 213.75C189.108 213.75 182.812 208.713 182.812 202.5Z" fill="white"/>
<path d="M182.812 217.5C182.812 211.287 189.108 206.25 196.875 206.25C204.642 206.25 210.938 211.287 210.938 217.5C210.938 223.713 204.642 228.75 196.875 228.75C189.108 228.75 182.812 223.713 182.812 217.5Z" fill="white"/>
<path d="M182.812 232.5C182.812 226.287 189.108 221.25 196.875 221.25C204.642 221.25 210.938 226.287 210.938 232.5C210.938 238.713 204.642 243.75 196.875 243.75C189.108 243.75 182.812 238.713 182.812 232.5Z" fill="white"/>
</g>
<defs>
<clipPath id="clip0_15_204">
<rect width="225" height="300" fill="white"/>
</clipPath>
</defs>
</svg>
