<svg width="226" height="300" viewBox="0 0 226 300" fill="none" xmlns="http://www.w3.org/2000/svg">
<g clip-path="url(#clip0_15_405)">
<path d="M14.1875 142.5C14.1875 136.287 20.4835 131.25 28.25 131.25C36.0165 131.25 42.3125 136.287 42.3125 142.5C42.3125 148.713 36.0165 153.75 28.25 153.75C20.4835 153.75 14.1875 148.713 14.1875 142.5Z" fill="white"/>
<path d="M14.1875 157.5C14.1875 151.287 20.4835 146.25 28.25 146.25C36.0165 146.25 42.3125 151.287 42.3125 157.5C42.3125 163.713 36.0165 168.75 28.25 168.75C20.4835 168.75 14.1875 163.713 14.1875 157.5Z" fill="white"/>
<path d="M14.1875 172.5C14.1875 166.287 20.4835 161.25 28.25 161.25C36.0165 161.25 42.3125 166.287 42.3125 172.5C42.3125 178.713 36.0165 183.75 28.25 183.75C20.4835 183.75 14.1875 178.713 14.1875 172.5Z" fill="white"/>
<path d="M32.9375 112.5C32.9375 106.287 39.2335 101.25 47 101.25C54.7665 101.25 61.0625 106.287 61.0625 112.5C61.0625 118.713 54.7665 123.75 47 123.75C39.2335 123.75 32.9375 118.713 32.9375 112.5Z" fill="white"/>
<path d="M32.9375 127.5C32.9375 121.287 39.2335 116.25 47 116.25C54.7665 116.25 61.0625 121.287 61.0625 127.5C61.0625 133.713 54.7665 138.75 47 138.75C39.2335 138.75 32.9375 133.713 32.9375 127.5Z" fill="white"/>
<path d="M32.9375 142.5C32.9375 136.287 39.2335 131.25 47 131.25C54.7665 131.25 61.0625 136.287 61.0625 142.5C61.0625 148.713 54.7665 153.75 47 153.75C39.2335 153.75 32.9375 148.713 32.9375 142.5Z" fill="white"/>
<path d="M32.9375 157.5C32.9375 151.287 39.2335 146.25 47 146.25C54.7665 146.25 61.0625 151.287 61.0625 157.5C61.0625 163.713 54.7665 168.75 47 168.75C39.2335 168.75 32.9375 163.713 32.9375 157.5Z" fill="white"/>
<path d="M32.9375 172.5C32.9375 166.287 39.2335 161.25 47 161.25C54.7665 161.25 61.0625 166.287 61.0625 172.5C61.0625 178.713 54.7665 183.75 47 183.75C39.2335 183.75 32.9375 178.713 32.9375 172.5Z" fill="white"/>
<path d="M32.9375 187.5C32.9375 181.287 39.2335 176.25 47 176.25C54.7665 176.25 61.0625 181.287 61.0625 187.5C61.0625 193.713 54.7665 198.75 47 198.75C39.2335 198.75 32.9375 193.713 32.9375 187.5Z" fill="white"/>
<path d="M32.9375 202.5C32.9375 196.287 39.2335 191.25 47 191.25C54.7665 191.25 61.0625 196.287 61.0625 202.5C61.0625 208.713 54.7665 213.75 47 213.75C39.2335 213.75 32.9375 208.713 32.9375 202.5Z" fill="white"/>
<path d="M51.6875 97.5C51.6875 91.2868 57.9835 86.25 65.75 86.25C73.5165 86.25 79.8125 91.2868 79.8125 97.5C79.8125 103.713 73.5165 108.75 65.75 108.75C57.9835 108.75 51.6875 103.713 51.6875 97.5Z" fill="white"/>
<path d="M51.6875 112.5C51.6875 106.287 57.9835 101.25 65.75 101.25C73.5165 101.25 79.8125 106.287 79.8125 112.5C79.8125 118.713 73.5165 123.75 65.75 123.75C57.9835 123.75 51.6875 118.713 51.6875 112.5Z" fill="white"/>
<path d="M51.6875 202.5C51.6875 196.287 57.9835 191.25 65.75 191.25C73.5165 191.25 79.8125 196.287 79.8125 202.5C79.8125 208.713 73.5165 213.75 65.75 213.75C57.9835 213.75 51.6875 208.713 51.6875 202.5Z" fill="white"/>
<path d="M51.6875 217.5C51.6875 211.287 57.9835 206.25 65.75 206.25C73.5165 206.25 79.8125 211.287 79.8125 217.5C79.8125 223.713 73.5165 228.75 65.75 228.75C57.9835 228.75 51.6875 223.713 51.6875 217.5Z" fill="white"/>
<path d="M70.4375 82.5C70.4375 76.2868 76.7335 71.25 84.5 71.25C92.2665 71.25 98.5625 76.2868 98.5625 82.5C98.5625 88.7132 92.2665 93.75 84.5 93.75C76.7335 93.75 70.4375 88.7132 70.4375 82.5Z" fill="white"/>
<path d="M70.4375 97.5C70.4375 91.2868 76.7335 86.25 84.5 86.25C92.2665 86.25 98.5625 91.2868 98.5625 97.5C98.5625 103.713 92.2665 108.75 84.5 108.75C76.7335 108.75 70.4375 103.713 70.4375 97.5Z" fill="white"/>
<path d="M70.4375 217.5C70.4375 211.287 76.7335 206.25 84.5 206.25C92.2665 206.25 98.5625 211.287 98.5625 217.5C98.5625 223.713 92.2665 228.75 84.5 228.75C76.7335 228.75 70.4375 223.713 70.4375 217.5Z" fill="white"/>
<path d="M70.4375 232.5C70.4375 226.287 76.7335 221.25 84.5 221.25C92.2665 221.25 98.5625 226.287 98.5625 232.5C98.5625 238.713 92.2665 243.75 84.5 243.75C76.7335 243.75 70.4375 238.713 70.4375 232.5Z" fill="white"/>
<path d="M89.1875 82.5C89.1875 76.2868 95.4835 71.25 103.25 71.25C111.017 71.25 117.312 76.2868 117.312 82.5C117.312 88.7132 111.017 93.75 103.25 93.75C95.4835 93.75 89.1875 88.7132 89.1875 82.5Z" fill="white"/>
<path d="M89.1875 232.5C89.1875 226.287 95.4835 221.25 103.25 221.25C111.017 221.25 117.312 226.287 117.312 232.5C117.312 238.713 111.017 243.75 103.25 243.75C95.4835 243.75 89.1875 238.713 89.1875 232.5Z" fill="white"/>
<path d="M107.938 82.5C107.938 76.2868 114.233 71.25 122 71.25C129.767 71.25 136.062 76.2868 136.062 82.5C136.062 88.7132 129.767 93.75 122 93.75C114.233 93.75 107.938 88.7132 107.938 82.5Z" fill="white"/>
<path d="M107.938 232.5C107.938 226.287 114.233 221.25 122 221.25C129.767 221.25 136.062 226.287 136.062 232.5C136.062 238.713 129.767 243.75 122 243.75C114.233 243.75 107.938 238.713 107.938 232.5Z" fill="white"/>
<path d="M126.688 82.5C126.688 76.2868 132.983 71.25 140.75 71.25C148.517 71.25 154.812 76.2868 154.812 82.5C154.812 88.7132 148.517 93.75 140.75 93.75C132.983 93.75 126.688 88.7132 126.688 82.5Z" fill="white"/>
<path d="M126.688 97.5C126.688 91.2868 132.983 86.25 140.75 86.25C148.517 86.25 154.812 91.2868 154.812 97.5C154.812 103.713 148.517 108.75 140.75 108.75C132.983 108.75 126.688 103.713 126.688 97.5Z" fill="white"/>
<path d="M126.688 232.5C126.688 226.287 132.983 221.25 140.75 221.25C148.517 221.25 154.812 226.287 154.812 232.5C154.812 238.713 148.517 243.75 140.75 243.75C132.983 243.75 126.688 238.713 126.688 232.5Z" fill="white"/>
<path d="M145.438 82.5C145.438 76.2868 151.733 71.25 159.5 71.25C167.267 71.25 173.562 76.2868 173.562 82.5C173.562 88.7132 167.267 93.75 159.5 93.75C151.733 93.75 145.438 88.7132 145.438 82.5Z" fill="white"/>
<path d="M145.438 97.5C145.438 91.2868 151.733 86.25 159.5 86.25C167.267 86.25 173.562 91.2868 173.562 97.5C173.562 103.713 167.267 108.75 159.5 108.75C151.733 108.75 145.438 103.713 145.438 97.5Z" fill="white"/>
<path d="M145.438 217.5C145.438 211.287 151.733 206.25 159.5 206.25C167.267 206.25 173.562 211.287 173.562 217.5C173.562 223.713 167.267 228.75 159.5 228.75C151.733 228.75 145.438 223.713 145.438 217.5Z" fill="white"/>
<path d="M145.438 232.5C145.438 226.287 151.733 221.25 159.5 221.25C167.267 221.25 173.562 226.287 173.562 232.5C173.562 238.713 167.267 243.75 159.5 243.75C151.733 243.75 145.438 238.713 145.438 232.5Z" fill="white"/>
<path d="M164.188 97.5C164.188 91.2868 170.483 86.25 178.25 86.25C186.017 86.25 192.312 91.2868 192.312 97.5C192.312 103.713 186.017 108.75 178.25 108.75C170.483 108.75 164.188 103.713 164.188 97.5Z" fill="white"/>
<path d="M164.188 112.5C164.188 106.287 170.483 101.25 178.25 101.25C186.017 101.25 192.312 106.287 192.312 112.5C192.312 118.713 186.017 123.75 178.25 123.75C170.483 123.75 164.188 118.713 164.188 112.5Z" fill="white"/>
<path d="M164.188 127.5C164.188 121.287 170.483 116.25 178.25 116.25C186.017 116.25 192.312 121.287 192.312 127.5C192.312 133.713 186.017 138.75 178.25 138.75C170.483 138.75 164.188 133.713 164.188 127.5Z" fill="white"/>
<path d="M164.188 142.5C164.188 136.287 170.483 131.25 178.25 131.25C186.017 131.25 192.312 136.287 192.312 142.5C192.312 148.713 186.017 153.75 178.25 153.75C170.483 153.75 164.188 148.713 164.188 142.5Z" fill="white"/>
<path d="M164.188 157.5C164.188 151.287 170.483 146.25 178.25 146.25C186.017 146.25 192.312 151.287 192.312 157.5C192.312 163.713 186.017 168.75 178.25 168.75C170.483 168.75 164.188 163.713 164.188 157.5Z" fill="white"/>
<path d="M164.188 172.5C164.188 166.287 170.483 161.25 178.25 161.25C186.017 161.25 192.312 166.287 192.312 172.5C192.312 178.713 186.017 183.75 178.25 183.75C170.483 183.75 164.188 178.713 164.188 172.5Z" fill="white"/>
<path d="M164.188 187.5C164.188 181.287 170.483 176.25 178.25 176.25C186.017 176.25 192.312 181.287 192.312 187.5C192.312 193.713 186.017 198.75 178.25 198.75C170.483 198.75 164.188 193.713 164.188 187.5Z" fill="white"/>
<path d="M164.188 202.5C164.188 196.287 170.483 191.25 178.25 191.25C186.017 191.25 192.312 196.287 192.312 202.5C192.312 208.713 186.017 213.75 178.25 213.75C170.483 213.75 164.188 208.713 164.188 202.5Z" fill="white"/>
<path d="M164.188 217.5C164.188 211.287 170.483 206.25 178.25 206.25C186.017 206.25 192.312 211.287 192.312 217.5C192.312 223.713 186.017 228.75 178.25 228.75C170.483 228.75 164.188 223.713 164.188 217.5Z" fill="white"/>
<path d="M182.938 142.5C182.938 136.287 189.233 131.25 197 131.25C204.767 131.25 211.062 136.287 211.062 142.5C211.062 148.713 204.767 153.75 197 153.75C189.233 153.75 182.938 148.713 182.938 142.5Z" fill="white"/>
<path d="M182.938 157.5C182.938 151.287 189.233 146.25 197 146.25C204.767 146.25 211.062 151.287 211.062 157.5C211.062 163.713 204.767 168.75 197 168.75C189.233 168.75 182.938 163.713 182.938 157.5Z" fill="white"/>
<path d="M182.938 172.5C182.938 166.287 189.233 161.25 197 161.25C204.767 161.25 211.062 166.287 211.062 172.5C211.062 178.713 204.767 183.75 197 183.75C189.233 183.75 182.938 178.713 182.938 172.5Z" fill="white"/>
<path d="M182.938 187.5C182.938 181.287 189.233 176.25 197 176.25C204.767 176.25 211.062 181.287 211.062 187.5C211.062 193.713 204.767 198.75 197 198.75C189.233 198.75 182.938 193.713 182.938 187.5Z" fill="white"/>
</g>
<defs>
<clipPath id="clip0_15_405">
<rect width="225" height="300" fill="white" transform="translate(0.125)"/>
</clipPath>
</defs>
</svg>
