<svg width="225" height="300" viewBox="0 0 225 300" fill="none" xmlns="http://www.w3.org/2000/svg">
<g clip-path="url(#clip0_15_606)">
<path d="M32.8125 82.5C32.8125 76.2868 39.1085 71.25 46.875 71.25C54.6415 71.25 60.9375 76.2868 60.9375 82.5C60.9375 88.7132 54.6415 93.75 46.875 93.75C39.1085 93.75 32.8125 88.7132 32.8125 82.5Z" fill="black"/>
<path d="M32.8125 97.5C32.8125 91.2868 39.1085 86.25 46.875 86.25C54.6415 86.25 60.9375 91.2868 60.9375 97.5C60.9375 103.713 54.6415 108.75 46.875 108.75C39.1085 108.75 32.8125 103.713 32.8125 97.5Z" fill="black"/>
<path d="M32.8125 112.5C32.8125 106.287 39.1085 101.25 46.875 101.25C54.6415 101.25 60.9375 106.287 60.9375 112.5C60.9375 118.713 54.6415 123.75 46.875 123.75C39.1085 123.75 32.8125 118.713 32.8125 112.5Z" fill="black"/>
<path d="M32.8125 217.5C32.8125 211.287 39.1085 206.25 46.875 206.25C54.6415 206.25 60.9375 211.287 60.9375 217.5C60.9375 223.713 54.6415 228.75 46.875 228.75C39.1085 228.75 32.8125 223.713 32.8125 217.5Z" fill="black"/>
<path d="M32.8125 232.5C32.8125 226.287 39.1085 221.25 46.875 221.25C54.6415 221.25 60.9375 226.287 60.9375 232.5C60.9375 238.713 54.6415 243.75 46.875 243.75C39.1085 243.75 32.8125 238.713 32.8125 232.5Z" fill="black"/>
<path d="M32.8125 247.5C32.8125 241.287 39.1085 236.25 46.875 236.25C54.6415 236.25 60.9375 241.287 60.9375 247.5C60.9375 253.713 54.6415 258.75 46.875 258.75C39.1085 258.75 32.8125 253.713 32.8125 247.5Z" fill="black"/>
<path d="M51.5625 67.5C51.5625 61.2868 57.8585 56.25 65.625 56.25C73.3915 56.25 79.6875 61.2868 79.6875 67.5C79.6875 73.7132 73.3915 78.75 65.625 78.75C57.8585 78.75 51.5625 73.7132 51.5625 67.5Z" fill="black"/>
<path d="M51.5625 82.5C51.5625 76.2868 57.8585 71.25 65.625 71.25C73.3915 71.25 79.6875 76.2868 79.6875 82.5C79.6875 88.7132 73.3915 93.75 65.625 93.75C57.8585 93.75 51.5625 88.7132 51.5625 82.5Z" fill="black"/>
<path d="M51.5625 112.5C51.5625 106.287 57.8585 101.25 65.625 101.25C73.3915 101.25 79.6875 106.287 79.6875 112.5C79.6875 118.713 73.3915 123.75 65.625 123.75C57.8585 123.75 51.5625 118.713 51.5625 112.5Z" fill="black"/>
<path d="M51.5625 127.5C51.5625 121.287 57.8585 116.25 65.625 116.25C73.3915 116.25 79.6875 121.287 79.6875 127.5C79.6875 133.713 73.3915 138.75 65.625 138.75C57.8585 138.75 51.5625 133.713 51.5625 127.5Z" fill="black"/>
<path d="M51.5625 142.5C51.5625 136.287 57.8585 131.25 65.625 131.25C73.3915 131.25 79.6875 136.287 79.6875 142.5C79.6875 148.713 73.3915 153.75 65.625 153.75C57.8585 153.75 51.5625 148.713 51.5625 142.5Z" fill="black"/>
<path d="M51.5625 157.5C51.5625 151.287 57.8585 146.25 65.625 146.25C73.3915 146.25 79.6875 151.287 79.6875 157.5C79.6875 163.713 73.3915 168.75 65.625 168.75C57.8585 168.75 51.5625 163.713 51.5625 157.5Z" fill="black"/>
<path d="M51.5625 172.5C51.5625 166.287 57.8585 161.25 65.625 161.25C73.3915 161.25 79.6875 166.287 79.6875 172.5C79.6875 178.713 73.3915 183.75 65.625 183.75C57.8585 183.75 51.5625 178.713 51.5625 172.5Z" fill="black"/>
<path d="M51.5625 187.5C51.5625 181.287 57.8585 176.25 65.625 176.25C73.3915 176.25 79.6875 181.287 79.6875 187.5C79.6875 193.713 73.3915 198.75 65.625 198.75C57.8585 198.75 51.5625 193.713 51.5625 187.5Z" fill="black"/>
<path d="M51.5625 202.5C51.5625 196.287 57.8585 191.25 65.625 191.25C73.3915 191.25 79.6875 196.287 79.6875 202.5C79.6875 208.713 73.3915 213.75 65.625 213.75C57.8585 213.75 51.5625 208.713 51.5625 202.5Z" fill="black"/>
<path d="M51.5625 217.5C51.5625 211.287 57.8585 206.25 65.625 206.25C73.3915 206.25 79.6875 211.287 79.6875 217.5C79.6875 223.713 73.3915 228.75 65.625 228.75C57.8585 228.75 51.5625 223.713 51.5625 217.5Z" fill="black"/>
<path d="M51.5625 232.5C51.5625 226.287 57.8585 221.25 65.625 221.25C73.3915 221.25 79.6875 226.287 79.6875 232.5C79.6875 238.713 73.3915 243.75 65.625 243.75C57.8585 243.75 51.5625 238.713 51.5625 232.5Z" fill="black"/>
<path d="M70.3125 67.5C70.3125 61.2868 76.6085 56.25 84.375 56.25C92.1415 56.25 98.4375 61.2868 98.4375 67.5C98.4375 73.7132 92.1415 78.75 84.375 78.75C76.6085 78.75 70.3125 73.7132 70.3125 67.5Z" fill="black"/>
<path d="M70.3125 82.5C70.3125 76.2868 76.6085 71.25 84.375 71.25C92.1415 71.25 98.4375 76.2868 98.4375 82.5C98.4375 88.7132 92.1415 93.75 84.375 93.75C76.6085 93.75 70.3125 88.7132 70.3125 82.5Z" fill="black"/>
<path d="M70.3125 157.5C70.3125 151.287 76.6085 146.25 84.375 146.25C92.1415 146.25 98.4375 151.287 98.4375 157.5C98.4375 163.713 92.1415 168.75 84.375 168.75C76.6085 168.75 70.3125 163.713 70.3125 157.5Z" fill="black"/>
<path d="M70.3125 172.5C70.3125 166.287 76.6085 161.25 84.375 161.25C92.1415 161.25 98.4375 166.287 98.4375 172.5C98.4375 178.713 92.1415 183.75 84.375 183.75C76.6085 183.75 70.3125 178.713 70.3125 172.5Z" fill="black"/>
<path d="M89.0625 82.5C89.0625 76.2868 95.3585 71.25 103.125 71.25C110.892 71.25 117.188 76.2868 117.188 82.5C117.188 88.7132 110.892 93.75 103.125 93.75C95.3585 93.75 89.0625 88.7132 89.0625 82.5Z" fill="black"/>
<path d="M89.0625 157.5C89.0625 151.287 95.3585 146.25 103.125 146.25C110.892 146.25 117.188 151.287 117.188 157.5C117.188 163.713 110.892 168.75 103.125 168.75C95.3585 168.75 89.0625 163.713 89.0625 157.5Z" fill="black"/>
<path d="M89.0625 172.5C89.0625 166.287 95.3585 161.25 103.125 161.25C110.892 161.25 117.188 166.287 117.188 172.5C117.188 178.713 110.892 183.75 103.125 183.75C95.3585 183.75 89.0625 178.713 89.0625 172.5Z" fill="black"/>
<path d="M107.812 82.5C107.812 76.2868 114.108 71.25 121.875 71.25C129.642 71.25 135.938 76.2868 135.938 82.5C135.938 88.7132 129.642 93.75 121.875 93.75C114.108 93.75 107.812 88.7132 107.812 82.5Z" fill="black"/>
<path d="M107.812 157.5C107.812 151.287 114.108 146.25 121.875 146.25C129.642 146.25 135.938 151.287 135.938 157.5C135.938 163.713 129.642 168.75 121.875 168.75C114.108 168.75 107.812 163.713 107.812 157.5Z" fill="black"/>
<path d="M107.812 172.5C107.812 166.287 114.108 161.25 121.875 161.25C129.642 161.25 135.938 166.287 135.938 172.5C135.938 178.713 129.642 183.75 121.875 183.75C114.108 183.75 107.812 178.713 107.812 172.5Z" fill="black"/>
<path d="M107.812 187.5C107.812 181.287 114.108 176.25 121.875 176.25C129.642 176.25 135.938 181.287 135.938 187.5C135.938 193.713 129.642 198.75 121.875 198.75C114.108 198.75 107.812 193.713 107.812 187.5Z" fill="black"/>
<path d="M126.562 82.5C126.562 76.2868 132.858 71.25 140.625 71.25C148.392 71.25 154.688 76.2868 154.688 82.5C154.688 88.7132 148.392 93.75 140.625 93.75C132.858 93.75 126.562 88.7132 126.562 82.5Z" fill="black"/>
<path d="M126.562 97.5C126.562 91.2868 132.858 86.25 140.625 86.25C148.392 86.25 154.688 91.2868 154.688 97.5C154.688 103.713 148.392 108.75 140.625 108.75C132.858 108.75 126.562 103.713 126.562 97.5Z" fill="black"/>
<path d="M126.562 157.5C126.562 151.287 132.858 146.25 140.625 146.25C148.392 146.25 154.688 151.287 154.688 157.5C154.688 163.713 148.392 168.75 140.625 168.75C132.858 168.75 126.562 163.713 126.562 157.5Z" fill="black"/>
<path d="M126.562 187.5C126.562 181.287 132.858 176.25 140.625 176.25C148.392 176.25 154.688 181.287 154.688 187.5C154.688 193.713 148.392 198.75 140.625 198.75C132.858 198.75 126.562 193.713 126.562 187.5Z" fill="black"/>
<path d="M145.312 97.5C145.312 91.2868 151.608 86.25 159.375 86.25C167.142 86.25 173.438 91.2868 173.438 97.5C173.438 103.713 167.142 108.75 159.375 108.75C151.608 108.75 145.312 103.713 145.312 97.5Z" fill="black"/>
<path d="M145.312 112.5C145.312 106.287 151.608 101.25 159.375 101.25C167.142 101.25 173.438 106.287 173.438 112.5C173.438 118.713 167.142 123.75 159.375 123.75C151.608 123.75 145.312 118.713 145.312 112.5Z" fill="black"/>
<path d="M145.312 142.5C145.312 136.287 151.608 131.25 159.375 131.25C167.142 131.25 173.438 136.287 173.438 142.5C173.438 148.713 167.142 153.75 159.375 153.75C151.608 153.75 145.312 148.713 145.312 142.5Z" fill="black"/>
<path d="M145.312 187.5C145.312 181.287 151.608 176.25 159.375 176.25C167.142 176.25 173.438 181.287 173.438 187.5C173.438 193.713 167.142 198.75 159.375 198.75C151.608 198.75 145.312 193.713 145.312 187.5Z" fill="black"/>
<path d="M145.312 202.5C145.312 196.287 151.608 191.25 159.375 191.25C167.142 191.25 173.438 196.287 173.438 202.5C173.438 208.713 167.142 213.75 159.375 213.75C151.608 213.75 145.312 208.713 145.312 202.5Z" fill="black"/>
<path d="M164.062 112.5C164.062 106.287 170.358 101.25 178.125 101.25C185.892 101.25 192.188 106.287 192.188 112.5C192.188 118.713 185.892 123.75 178.125 123.75C170.358 123.75 164.062 118.713 164.062 112.5Z" fill="black"/>
<path d="M164.062 127.5C164.062 121.287 170.358 116.25 178.125 116.25C185.892 116.25 192.188 121.287 192.188 127.5C192.188 133.713 185.892 138.75 178.125 138.75C170.358 138.75 164.062 133.713 164.062 127.5Z" fill="black"/>
<path d="M164.062 142.5C164.062 136.287 170.358 131.25 178.125 131.25C185.892 131.25 192.188 136.287 192.188 142.5C192.188 148.713 185.892 153.75 178.125 153.75C170.358 153.75 164.062 148.713 164.062 142.5Z" fill="black"/>
<path d="M164.062 202.5C164.062 196.287 170.358 191.25 178.125 191.25C185.892 191.25 192.188 196.287 192.188 202.5C192.188 208.713 185.892 213.75 178.125 213.75C170.358 213.75 164.062 208.713 164.062 202.5Z" fill="black"/>
<path d="M164.062 217.5C164.062 211.287 170.358 206.25 178.125 206.25C185.892 206.25 192.188 211.287 192.188 217.5C192.188 223.713 185.892 228.75 178.125 228.75C170.358 228.75 164.062 223.713 164.062 217.5Z" fill="black"/>
<path d="M164.062 232.5C164.062 226.287 170.358 221.25 178.125 221.25C185.892 221.25 192.188 226.287 192.188 232.5C192.188 238.713 185.892 243.75 178.125 243.75C170.358 243.75 164.062 238.713 164.062 232.5Z" fill="black"/>
<path d="M164.062 247.5C164.062 241.287 170.358 236.25 178.125 236.25C185.892 236.25 192.188 241.287 192.188 247.5C192.188 253.713 185.892 258.75 178.125 258.75C170.358 258.75 164.062 253.713 164.062 247.5Z" fill="black"/>
<path d="M182.812 232.5C182.812 226.287 189.108 221.25 196.875 221.25C204.642 221.25 210.938 226.287 210.938 232.5C210.938 238.713 204.642 243.75 196.875 243.75C189.108 243.75 182.812 238.713 182.812 232.5Z" fill="black"/>
<path d="M182.812 247.5C182.812 241.287 189.108 236.25 196.875 236.25C204.642 236.25 210.938 241.287 210.938 247.5C210.938 253.713 204.642 258.75 196.875 258.75C189.108 258.75 182.812 253.713 182.812 247.5Z" fill="black"/>
</g>
<defs>
<clipPath id="clip0_15_606">
<rect width="225" height="300" fill="white"/>
</clipPath>
</defs>
</svg>
