<svg width="225" height="300" viewBox="0 0 225 300" fill="none" xmlns="http://www.w3.org/2000/svg">
<g clip-path="url(#clip0_15_807)">
<path d="M14.0625 52.5C14.0625 46.2868 20.3585 41.25 28.125 41.25C35.8915 41.25 42.1875 46.2868 42.1875 52.5C42.1875 58.7132 35.8915 63.75 28.125 63.75C20.3585 63.75 14.0625 58.7132 14.0625 52.5Z" fill="white"/>
<path d="M14.0625 67.5C14.0625 61.2868 20.3585 56.25 28.125 56.25C35.8915 56.25 42.1875 61.2868 42.1875 67.5C42.1875 73.7132 35.8915 78.75 28.125 78.75C20.3585 78.75 14.0625 73.7132 14.0625 67.5Z" fill="white"/>
<path d="M14.0625 82.5C14.0625 76.2868 20.3585 71.25 28.125 71.25C35.8915 71.25 42.1875 76.2868 42.1875 82.5C42.1875 88.7132 35.8915 93.75 28.125 93.75C20.3585 93.75 14.0625 88.7132 14.0625 82.5Z" fill="white"/>
<path d="M32.8125 82.5C32.8125 76.2868 39.1085 71.25 46.875 71.25C54.6415 71.25 60.9375 76.2868 60.9375 82.5C60.9375 88.7132 54.6415 93.75 46.875 93.75C39.1085 93.75 32.8125 88.7132 32.8125 82.5Z" fill="white"/>
<path d="M51.5625 67.5C51.5625 61.2868 57.8585 56.25 65.625 56.25C73.3915 56.25 79.6875 61.2868 79.6875 67.5C79.6875 73.7132 73.3915 78.75 65.625 78.75C57.8585 78.75 51.5625 73.7132 51.5625 67.5Z" fill="white"/>
<path d="M51.5625 82.5C51.5625 76.2868 57.8585 71.25 65.625 71.25C73.3915 71.25 79.6875 76.2868 79.6875 82.5C79.6875 88.7132 73.3915 93.75 65.625 93.75C57.8585 93.75 51.5625 88.7132 51.5625 82.5Z" fill="white"/>
<path d="M70.3125 67.5C70.3125 61.2868 76.6085 56.25 84.375 56.25C92.1415 56.25 98.4375 61.2868 98.4375 67.5C98.4375 73.7132 92.1415 78.75 84.375 78.75C76.6085 78.75 70.3125 73.7132 70.3125 67.5Z" fill="white"/>
<path d="M70.3125 82.5C70.3125 76.2868 76.6085 71.25 84.375 71.25C92.1415 71.25 98.4375 76.2868 98.4375 82.5C98.4375 88.7132 92.1415 93.75 84.375 93.75C76.6085 93.75 70.3125 88.7132 70.3125 82.5Z" fill="white"/>
<path d="M89.0625 67.5C89.0625 61.2868 95.3585 56.25 103.125 56.25C110.892 56.25 117.188 61.2868 117.188 67.5C117.188 73.7132 110.892 78.75 103.125 78.75C95.3585 78.75 89.0625 73.7132 89.0625 67.5Z" fill="white"/>
<path d="M89.0625 82.5C89.0625 76.2868 95.3585 71.25 103.125 71.25C110.892 71.25 117.188 76.2868 117.188 82.5C117.188 88.7132 110.892 93.75 103.125 93.75C95.3585 93.75 89.0625 88.7132 89.0625 82.5Z" fill="white"/>
<path d="M89.0625 97.5C89.0625 91.2868 95.3585 86.25 103.125 86.25C110.892 86.25 117.188 91.2868 117.188 97.5C117.188 103.713 110.892 108.75 103.125 108.75C95.3585 108.75 89.0625 103.713 89.0625 97.5Z" fill="white"/>
<path d="M89.0625 112.5C89.0625 106.287 95.3585 101.25 103.125 101.25C110.892 101.25 117.188 106.287 117.188 112.5C117.188 118.713 110.892 123.75 103.125 123.75C95.3585 123.75 89.0625 118.713 89.0625 112.5Z" fill="white"/>
<path d="M89.0625 127.5C89.0625 121.287 95.3585 116.25 103.125 116.25C110.892 116.25 117.188 121.287 117.188 127.5C117.188 133.713 110.892 138.75 103.125 138.75C95.3585 138.75 89.0625 133.713 89.0625 127.5Z" fill="white"/>
<path d="M89.0625 157.5C89.0625 151.287 95.3585 146.25 103.125 146.25C110.892 146.25 117.188 151.287 117.188 157.5C117.188 163.713 110.892 168.75 103.125 168.75C95.3585 168.75 89.0625 163.713 89.0625 157.5Z" fill="white"/>
<path d="M89.0625 172.5C89.0625 166.287 95.3585 161.25 103.125 161.25C110.892 161.25 117.188 166.287 117.188 172.5C117.188 178.713 110.892 183.75 103.125 183.75C95.3585 183.75 89.0625 178.713 89.0625 172.5Z" fill="white"/>
<path d="M89.0625 187.5C89.0625 181.287 95.3585 176.25 103.125 176.25C110.892 176.25 117.188 181.287 117.188 187.5C117.188 193.713 110.892 198.75 103.125 198.75C95.3585 198.75 89.0625 193.713 89.0625 187.5Z" fill="white"/>
<path d="M89.0625 202.5C89.0625 196.287 95.3585 191.25 103.125 191.25C110.892 191.25 117.188 196.287 117.188 202.5C117.188 208.713 110.892 213.75 103.125 213.75C95.3585 213.75 89.0625 208.713 89.0625 202.5Z" fill="white"/>
<path d="M107.812 67.5C107.812 61.2868 114.108 56.25 121.875 56.25C129.642 56.25 135.938 61.2868 135.938 67.5C135.938 73.7132 129.642 78.75 121.875 78.75C114.108 78.75 107.812 73.7132 107.812 67.5Z" fill="white"/>
<path d="M107.812 82.5C107.812 76.2868 114.108 71.25 121.875 71.25C129.642 71.25 135.938 76.2868 135.938 82.5C135.938 88.7132 129.642 93.75 121.875 93.75C114.108 93.75 107.812 88.7132 107.812 82.5Z" fill="white"/>
<path d="M107.812 97.5C107.812 91.2868 114.108 86.25 121.875 86.25C129.642 86.25 135.938 91.2868 135.938 97.5C135.938 103.713 129.642 108.75 121.875 108.75C114.108 108.75 107.812 103.713 107.812 97.5Z" fill="white"/>
<path d="M107.812 112.5C107.812 106.287 114.108 101.25 121.875 101.25C129.642 101.25 135.938 106.287 135.938 112.5C135.938 118.713 129.642 123.75 121.875 123.75C114.108 123.75 107.812 118.713 107.812 112.5Z" fill="white"/>
<path d="M107.812 127.5C107.812 121.287 114.108 116.25 121.875 116.25C129.642 116.25 135.938 121.287 135.938 127.5C135.938 133.713 129.642 138.75 121.875 138.75C114.108 138.75 107.812 133.713 107.812 127.5Z" fill="white"/>
<path d="M107.812 142.5C107.812 136.287 114.108 131.25 121.875 131.25C129.642 131.25 135.938 136.287 135.938 142.5C135.938 148.713 129.642 153.75 121.875 153.75C114.108 153.75 107.812 148.713 107.812 142.5Z" fill="white"/>
<path d="M107.812 157.5C107.812 151.287 114.108 146.25 121.875 146.25C129.642 146.25 135.938 151.287 135.938 157.5C135.938 163.713 129.642 168.75 121.875 168.75C114.108 168.75 107.812 163.713 107.812 157.5Z" fill="white"/>
<path d="M107.812 172.5C107.812 166.287 114.108 161.25 121.875 161.25C129.642 161.25 135.938 166.287 135.938 172.5C135.938 178.713 129.642 183.75 121.875 183.75C114.108 183.75 107.812 178.713 107.812 172.5Z" fill="white"/>
<path d="M107.812 187.5C107.812 181.287 114.108 176.25 121.875 176.25C129.642 176.25 135.938 181.287 135.938 187.5C135.938 193.713 129.642 198.75 121.875 198.75C114.108 198.75 107.812 193.713 107.812 187.5Z" fill="white"/>
<path d="M107.812 202.5C107.812 196.287 114.108 191.25 121.875 191.25C129.642 191.25 135.938 196.287 135.938 202.5C135.938 208.713 129.642 213.75 121.875 213.75C114.108 213.75 107.812 208.713 107.812 202.5Z" fill="white"/>
<path d="M107.812 217.5C107.812 211.287 114.108 206.25 121.875 206.25C129.642 206.25 135.938 211.287 135.938 217.5C135.938 223.713 129.642 228.75 121.875 228.75C114.108 228.75 107.812 223.713 107.812 217.5Z" fill="white"/>
<path d="M107.812 232.5C107.812 226.287 114.108 221.25 121.875 221.25C129.642 221.25 135.938 226.287 135.938 232.5C135.938 238.713 129.642 243.75 121.875 243.75C114.108 243.75 107.812 238.713 107.812 232.5Z" fill="white"/>
<path d="M107.812 247.5C107.812 241.287 114.108 236.25 121.875 236.25C129.642 236.25 135.938 241.287 135.938 247.5C135.938 253.713 129.642 258.75 121.875 258.75C114.108 258.75 107.812 253.713 107.812 247.5Z" fill="white"/>
<path d="M107.812 262.5C107.812 256.287 114.108 251.25 121.875 251.25C129.642 251.25 135.938 256.287 135.938 262.5C135.938 268.713 129.642 273.75 121.875 273.75C114.108 273.75 107.812 268.713 107.812 262.5Z" fill="white"/>
<path d="M126.562 67.5C126.562 61.2868 132.858 56.25 140.625 56.25C148.392 56.25 154.688 61.2868 154.688 67.5C154.688 73.7132 148.392 78.75 140.625 78.75C132.858 78.75 126.562 73.7132 126.562 67.5Z" fill="white"/>
<path d="M126.562 82.5C126.562 76.2868 132.858 71.25 140.625 71.25C148.392 71.25 154.688 76.2868 154.688 82.5C154.688 88.7132 148.392 93.75 140.625 93.75C132.858 93.75 126.562 88.7132 126.562 82.5Z" fill="white"/>
<path d="M126.562 202.5C126.562 196.287 132.858 191.25 140.625 191.25C148.392 191.25 154.688 196.287 154.688 202.5C154.688 208.713 148.392 213.75 140.625 213.75C132.858 213.75 126.562 208.713 126.562 202.5Z" fill="white"/>
<path d="M126.562 217.5C126.562 211.287 132.858 206.25 140.625 206.25C148.392 206.25 154.688 211.287 154.688 217.5C154.688 223.713 148.392 228.75 140.625 228.75C132.858 228.75 126.562 223.713 126.562 217.5Z" fill="white"/>
<path d="M126.562 247.5C126.562 241.287 132.858 236.25 140.625 236.25C148.392 236.25 154.688 241.287 154.688 247.5C154.688 253.713 148.392 258.75 140.625 258.75C132.858 258.75 126.562 253.713 126.562 247.5Z" fill="white"/>
<path d="M126.562 262.5C126.562 256.287 132.858 251.25 140.625 251.25C148.392 251.25 154.688 256.287 154.688 262.5C154.688 268.713 148.392 273.75 140.625 273.75C132.858 273.75 126.562 268.713 126.562 262.5Z" fill="white"/>
<path d="M145.312 67.5C145.312 61.2868 151.608 56.25 159.375 56.25C167.142 56.25 173.438 61.2868 173.438 67.5C173.438 73.7132 167.142 78.75 159.375 78.75C151.608 78.75 145.312 73.7132 145.312 67.5Z" fill="white"/>
<path d="M145.312 82.5C145.312 76.2868 151.608 71.25 159.375 71.25C167.142 71.25 173.438 76.2868 173.438 82.5C173.438 88.7132 167.142 93.75 159.375 93.75C151.608 93.75 145.312 88.7132 145.312 82.5Z" fill="white"/>
<path d="M164.062 67.5C164.062 61.2868 170.358 56.25 178.125 56.25C185.892 56.25 192.188 61.2868 192.188 67.5C192.188 73.7132 185.892 78.75 178.125 78.75C170.358 78.75 164.062 73.7132 164.062 67.5Z" fill="white"/>
<path d="M182.812 67.5C182.812 61.2868 189.108 56.25 196.875 56.25C204.642 56.25 210.938 61.2868 210.938 67.5C210.938 73.7132 204.642 78.75 196.875 78.75C189.108 78.75 182.812 73.7132 182.812 67.5Z" fill="white"/>
<path d="M182.812 82.5C182.812 76.2868 189.108 71.25 196.875 71.25C204.642 71.25 210.938 76.2868 210.938 82.5C210.938 88.7132 204.642 93.75 196.875 93.75C189.108 93.75 182.812 88.7132 182.812 82.5Z" fill="white"/>
</g>
<defs>
<clipPath id="clip0_15_807">
<rect width="225" height="300" fill="white"/>
</clipPath>
</defs>
</svg>
